

<svg
   version="1.1"
>
    <g
       id="g14"
       transform="rotate(138.20286,20.354733,49.356389)">
      <path
         d="m 0,61.498611 c 0,1.656857 1.343146,3 3,3 h 8 c 1.656854,0 3,-1.343147 3,-3 v -68 c 0,-1.656852 -1.343145,-3 -3,-3 H 3 c -1.656854,0 -3,1.343148 -3,3 z"
         style="fill:#d9d9d9;fill-opacity:1;fill-rule:nonzero;stroke:none"
         id="path16" />
    </g>
    <g
       id="g18"
       transform="rotate(138.20286,28.514618,44.308697)">
      <path
         d="m 0,61.498611 c 0,1.656857 1.343146,3 3,3 h 8 c 1.656854,0 3,-1.343147 3,-3 v -68 c 0,-1.656852 -1.343145,-3 -3,-3 H 3 c -1.656854,0 -3,1.343148 -3,3 z"
         style="fill:#d9d9d9;fill-opacity:1;fill-rule:nonzero;stroke:none"
         id="path20" />
    </g>
  
</svg>
